<?xml version="1.0" encoding="UTF-8" standalone="no"?>
<svg
   xmlns:dc="http://purl.org/dc/elements/1.1/"
   xmlns:cc="http://creativecommons.org/ns#"
   xmlns:rdf="http://www.w3.org/1999/02/22-rdf-syntax-ns#"
   xmlns:svg="http://www.w3.org/2000/svg"
   xmlns="http://www.w3.org/2000/svg"
   xmlns:sodipodi="http://sodipodi.sourceforge.net/DTD/sodipodi-0.dtd"
   xmlns:inkscape="http://www.inkscape.org/namespaces/inkscape"
   inkscape:version="1.0 (4035a4f, 2020-05-01)"
   sodipodi:docname="logo_maschinendeck.svg"
   version="1.1"
   id="logo_maschinendeck"
   height="512"
   width="512">
  <metadata
     id="metadata839">
    <rdf:RDF>
      <cc:Work
         rdf:about="">
        <dc:format>image/svg+xml</dc:format>
        <dc:type
           rdf:resource="http://purl.org/dc/dcmitype/StillImage" />
      </cc:Work>
    </rdf:RDF>
  </metadata>
  <defs
     id="defs837" />
  <sodipodi:namedview
     inkscape:current-layer="logo_maschinendeck"
     inkscape:window-maximized="1"
     inkscape:window-y="25"
     inkscape:window-x="0"
     inkscape:cy="256"
     inkscape:cx="256"
     inkscape:zoom="1.1484375"
     showgrid="false"
     id="namedview835"
     inkscape:window-height="787"
     inkscape:window-width="1440"
     inkscape:pageshadow="2"
     inkscape:pageopacity="0"
     guidetolerance="10"
     gridtolerance="10"
     objecttolerance="10"
     borderopacity="1"
     bordercolor="#666666"
     pagecolor="#ffffff" />
  <path
     style="fill:#ffffff;fill-opacity:1"
     id="maschinendeck_logo"
     d="m 255.99814,1.982815 a 4.737477,4.7075912 0 0 0 -4.737,4.70712 v 24.93303 a 4.737477,4.7075912 0 0 0 4.737,4.707121 c 15.41876,0 30.46725,1.537401 44.99784,4.464402 14.53062,2.926963 28.54524,7.242169 41.89658,12.801165 7.7085,3.20954 15.18922,6.845791 22.42675,10.855786 -0.23598,1.006741 -0.37379,2.048634 -0.37379,3.122159 0,7.650407 6.34179,13.952187 14.04078,13.952187 7.69898,0 14.04077,-6.30178 14.04077,-13.952187 0,-7.650408 -6.34179,-13.952207 -14.04077,-13.952207 -3.19219,0 -6.14156,1.095196 -8.5118,2.90885 -7.7126,-4.299804 -15.69237,-8.19054 -23.92187,-11.617023 C 332.63399,39.118019 318.02162,34.618651 302.87598,31.567798 289.23881,28.820759 275.12082,27.437074 260.73515,27.1512 V 11.632405 c 15.49653,0.28803 30.69239,1.7811 45.36421,4.73655 16.17933,3.25908 31.78205,8.06394 46.64838,14.253746 14.86633,6.18977 28.99622,13.763997 42.21854,22.557407 13.22232,8.79339 25.53817,18.807055 36.78209,29.875491 11.24394,11.068437 21.41541,23.191021 30.34644,36.204381 8.93105,13.01335 16.62233,26.91893 22.90784,41.5477 a 4.737477,4.7075912 0 1 0 8.71166,-3.69951 C 487.18406,141.90988 479.19622,127.47058 469.92197,113.95711 460.64773,100.44367 450.08904,87.856015 438.41718,76.366348 426.74534,64.876662 413.96125,54.48592 400.2362,45.358192 386.51117,36.230464 371.84521,28.366259 356.41151,21.940268 340.9779,15.514255 324.77369,10.525215 307.97936,7.142245 291.18508,3.759325 273.79933,1.982815 255.99814,1.982815 Z m -51.20033,5.06751 a 4.737477,4.7075912 0 0 0 -0.78087,0.0918 c -16.79429,3.38298 -32.99488,8.372 -48.42845,14.798024 C 140.15484,28.366141 125.48885,36.230365 111.7638,45.358074 98.03875,54.485783 85.25468,64.876525 73.58282,76.36623 a 4.737477,4.7075912 0 1 0 6.66511,6.689251 c 11.24394,-11.068474 23.56347,-21.08212 36.78579,-29.875491 13.22234,-8.79339 27.34852,-16.367637 42.21485,-22.557406 13.43867,-5.59543 27.55334,-9.881999 42.0779,-13.095359 l 3.17897,15.209892 c -13.47746,3.002521 -26.57997,6.980565 -39.05807,12.175983 -13.91862,5.795238 -27.1467,12.884143 -39.52436,21.115861 -12.37766,8.231661 -23.90603,17.605138 -34.4321,27.966904 C 82.07683,103.26302 73.6052,113.42923 65.90739,124.16924 L 48.62103,112.69572 a 4.737477,4.7075912 0 0 0 -6.54298,1.26135 C 32.80378,127.47054 24.81226,141.90984 18.282,157.10813 11.75179,172.30639 6.68028,188.26437 3.24201,204.8045 c -3.43826,16.54017 -5.2403,33.66502 -5.2403,51.1973 0,17.53224 1.80204,34.65712 5.2403,51.19729 3.43825,16.54014 8.50977,32.49439 15.03999,47.69268 a 4.737477,4.7075912 0 0 0 6.18772,2.49331 l 42.5442,-17.69583 c 4.87225,10.6479 10.48886,20.89389 17.06432,30.47492 7.45369,10.86077 15.94049,20.97629 25.32076,30.21015 9.38029,9.23388 19.65291,17.58636 30.6832,24.92201 11.0303,7.33562 22.81674,13.65669 35.22035,18.82114 7.23301,3.01154 14.68261,5.61533 22.30833,7.81455 0.95036,6.76103 6.842,12.04728 13.88905,12.04728 7.69897,0 14.04078,-6.30179 14.04078,-13.9522 0,-7.6504 -6.34181,-13.9522 -14.04078,-13.9522 -5.00091,0 -9.41586,2.66649 -11.90542,6.62673 -7.04638,-2.05865 -13.93395,-4.47939 -20.62817,-7.26661 -11.83633,-4.92824 -23.08664,-10.95933 -33.61423,-17.9606 -10.52757,-7.00131 -20.33205,-14.97305 -29.28428,-23.78568 -8.95237,-8.81262 -17.05197,-18.46677 -24.16244,-28.82742 -7.11052,-10.36067 -13.23348,-21.42881 -18.23746,-33.07489 a 4.737477,4.7075912 0 0 0 -6.184,-2.49331 L 25.3653,346.80877 C 19.94249,333.48176 15.50591,319.65885 12.51989,305.29418 9.21077,289.37531 7.47572,272.89207 7.47572,256.0018 c 0,-16.89029 1.73505,-33.37352 5.04417,-49.29239 3.30912,-15.91882 8.19196,-31.27303 14.47746,-45.90176 5.6656,-13.18595 12.62597,-25.68211 20.45423,-37.56872 l 16.90888,11.22355 a 4.737477,4.7075912 0 0 0 6.54299,-1.26136 c 8.02076,-11.68699 17.15811,-22.57535 27.25627,-32.5159 10.09817,-9.940539 21.15826,-18.933267 33.0332,-26.830591 11.87493,-7.897381 24.5632,-14.69998 37.91452,-20.259014 13.35132,-5.558997 27.36596,-9.87422 41.89658,-12.801164 a 4.737477,4.7075912 0 0 0 3.69708,-5.571311 l -5.10338,-24.425545 a 4.737477,4.7075912 0 0 0 -4.79991,-3.7473 z m 7.54961,41.525617 c -7.69902,0 -14.04448,6.301799 -14.04448,13.952206 0,7.650408 6.34546,13.955879 14.04448,13.955879 7.39025,0 13.51215,-5.815103 13.99265,-13.047555 9.67245,-1.430306 19.57453,-2.177043 29.65807,-2.177043 13.67033,0 27.01254,1.362033 39.89446,3.956937 12.88196,2.594866 25.30475,6.424033 37.14106,11.352238 11.83633,4.928223 23.08666,10.955615 33.61423,17.95693 10.52757,7.001296 20.33197,14.976686 29.2843,23.789356 8.95235,8.81259 17.05193,18.46309 24.16242,28.82375 7.1105,10.36063 13.23348,21.42881 18.23746,33.07488 a 4.737477,4.7075912 0 0 0 6.184,2.49331 l 23.33715,-9.7011 a 4.737477,4.7075912 0 0 0 2.52763,-6.1928 c -5.88946,-13.70694 -13.09311,-26.73121 -21.45715,-38.91832 -5.46722,-7.96629 -11.44166,-15.56571 -17.85626,-22.77438 0.55464,-1.49216 0.87337,-3.09303 0.87337,-4.76596 0,-7.65041 -6.34548,-13.95219 -14.04448,-13.95219 -7.69897,0 -14.04076,6.30178 -14.04076,13.95219 0,7.65042 6.34179,13.9522 14.04076,13.9522 2.5491,0 4.94185,-0.70305 7.013,-1.90491 5.80086,6.60241 11.20929,13.54628 16.18722,20.7996 7.12873,10.38718 13.21682,21.49222 18.48172,33.03809 l -14.59219,6.07145 c -4.87225,-10.64792 -10.48888,-20.89391 -17.06432,-30.47493 -7.45371,-10.86076 -15.94047,-20.97629 -25.32076,-30.21015 -9.38025,-9.2339 -19.65661,-17.586369 -30.68689,-24.922002 -11.0303,-7.335633 -22.81693,-13.653022 -35.22036,-18.817449 -12.40367,-5.164407 -25.4242,-9.177755 -38.92115,-11.896513 -13.49692,-2.718757 -27.47011,-4.144468 -41.77446,-4.144468 -11.00197,0 -21.80168,0.852139 -32.34484,2.4786 -2.56537,-3.469092 -6.6852,-5.747846 -11.30588,-5.747846 z m 0,9.414241 c 2.57884,0 4.56675,1.97539 4.56675,4.537965 0,2.562575 -1.98797,4.541637 -4.56675,4.541637 -2.57887,0 -4.57047,-1.979062 -4.57047,-4.541637 0,-2.562575 1.9916,-4.537965 4.57047,-4.537965 z m 166.63888,5.045449 c 2.57885,0 4.56676,1.975391 4.56676,4.537966 0,2.562575 -1.98791,4.537946 -4.56676,4.537946 -2.57884,0 -4.56677,-1.975371 -4.56677,-4.537946 0,-2.562575 1.98793,-4.537966 4.56677,-4.537966 z M 145.51865,74.634278 c -7.69898,0 -14.04077,6.30178 -14.04077,13.952188 0,1.302705 0.19718,2.561992 0.54031,3.762025 -8.0052,5.889003 -15.5658,12.333809 -22.61919,19.277129 -9.38027,9.23386 -17.86707,19.34939 -25.32076,30.21015 -7.45375,10.86075 -13.87327,22.46631 -19.12194,34.68193 -5.24868,12.21558 -9.32695,25.03934 -12.09046,38.3336 -2.76353,13.29423 -4.2152,27.06051 -4.2152,41.15054 0,14.09001 1.45167,27.85259 4.2152,41.14685 a 4.737477,4.7075912 0 1 0 9.27785,-1.90491 c -2.63438,-12.67296 -4.01904,-25.7939 -4.01904,-39.24194 0,-13.44806 1.38466,-26.5727 4.01904,-39.24562 2.63436,-12.67297 6.5203,-24.89666 11.52424,-36.5427 5.00398,-11.64607 11.12694,-22.71425 18.23746,-33.07488 7.11047,-10.36066 15.20995,-20.01116 24.16244,-28.82375 6.69241,-6.58801 13.86253,-12.70759 21.45343,-18.30262 2.27696,1.58473 5.03409,2.5264 7.99739,2.5264 7.69899,0 14.04447,-6.301777 14.04447,-13.952204 0,-7.650408 -6.34548,-13.952188 -14.04447,-13.952188 z m 0,9.414241 c 2.57886,0 4.57046,1.975372 4.57046,4.537947 0,2.562594 -1.9916,4.537965 -4.57046,4.537965 -2.57885,0 -4.56676,-1.975371 -4.56676,-4.537965 0,-2.562575 1.98791,-4.537947 4.56676,-4.537947 z m 272.37768,11.767802 c 2.57887,0 4.57047,1.975371 4.57047,4.537949 0,2.56259 -1.9916,4.53796 -4.57047,4.53796 -2.57884,0 -4.56675,-1.97537 -4.56675,-4.53796 0,-2.562578 1.98791,-4.537949 4.56675,-4.537949 z M 173.21532,139.09976 135.76709,369.93623 h 37.81461 l 25.33186,-152.28639 52.49562,155.25039 h 9.17794 l 55.80412,-154.50755 22.02706,151.54355 h 37.81092 L 342.82224,139.09976 H 314.55565 L 259.12161,293.60732 201.11553,139.09976 Z M 44.01355,158.68948 c -7.69897,0 -14.0408,6.30178 -14.04076,13.95219 0,4.36416 2.06785,8.28513 5.2699,10.85211 -2.84167,8.41466 -5.20855,17.04219 -7.06109,25.85608 a 4.737477,4.7075912 0 0 0 -0.12582,0.47806 4.737477,4.7075912 0 0 0 -0.0889,0.56632 c -3.02606,14.74441 -4.64079,29.99326 -4.64079,45.6076 0,15.81113 1.62872,31.25302 4.72961,46.17022 a 4.737477,4.7075912 0 1 0 9.27786,-1.9049 c -2.97175,-14.29594 -4.53346,-29.09615 -4.53346,-44.26532 0,-15.16919 1.56171,-29.97313 4.53346,-44.26901 1.78274,-8.57614 4.08087,-16.96574 6.84645,-25.14632 7.62282,-0.0911 13.87425,-6.35028 13.87425,-13.94484 0,-7.65041 -6.34181,-13.95219 -14.04079,-13.95219 z m 0,9.41424 c 2.57885,0 4.56678,1.97537 4.56678,4.53795 0,2.56257 -1.98793,4.53796 -4.56678,4.53796 -2.57884,0 -4.56677,-1.97539 -4.56675,-4.53796 0,-2.56258 1.98791,-4.53795 4.56675,-4.53795 z m 459.94453,32.94615 a 4.737477,4.7075912 0 0 0 -0.78828,0.0919 l -24.81005,5.02706 a 4.737477,4.7075912 0 0 0 -3.69339,5.56396 c 2.97173,14.29587 4.53346,29.0998 4.53346,44.269 0,15.16918 -1.56173,29.96938 -4.53346,44.26534 -2.97175,14.29587 -7.35242,28.08664 -12.99714,41.22408 -3.04186,7.07949 -6.46243,13.96314 -10.21418,20.64146 -1.50163,-0.55089 -3.11266,-0.86789 -4.79621,-0.86789 -7.69898,0 -14.04084,6.30178 -14.04076,13.95222 0,7.6504 6.34178,13.95218 14.04076,13.95218 7.69897,0 14.04078,-6.30178 14.04078,-13.95218 0,-2.50663 -0.69005,-4.8634 -1.87631,-6.90623 4.27037,-7.461 8.14147,-15.17326 11.55755,-23.12374 5.88946,-13.70696 10.46249,-28.09784 13.56339,-43.015 3.10086,-14.91723 4.72959,-30.35909 4.72959,-46.17023 0,-14.18833 -1.49443,-28.02194 -4.00424,-41.50357 l 15.52848,-3.14421 c 2.71951,14.49269 4.32621,29.37296 4.32621,44.64778 0,16.89028 -1.73873,33.37353 -5.04786,49.29239 -3.30912,15.91882 -8.18824,31.27301 -14.47377,45.90177 -6.28553,14.62876 -13.97681,28.53066 -22.90784,41.54402 -8.04711,11.72538 -17.23292,22.60628 -27.17117,32.76597 l -14.41455,-14.18756 a 4.737477,4.7075912 0 0 0 -6.66881,0 c -10.09815,9.94053 -21.15813,18.93326 -33.0332,26.83058 -11.87493,7.89737 -24.56319,14.6963 -37.91452,20.25535 -8.25209,3.43585 -16.75952,6.39537 -25.4836,8.84791 -2.4691,-4.05712 -6.94193,-6.80327 -12.01645,-6.80327 -7.69898,0 -14.04077,6.30179 -14.04077,13.9522 0,7.65041 6.34179,13.95588 14.04077,13.95588 6.97533,0 12.82234,-5.18249 13.86314,-11.84504 9.35052,-2.59614 18.46323,-5.74724 27.29698,-9.42526 13.91864,-5.79523 27.14672,-12.88416 39.52438,-21.11586 11.06915,-7.36144 21.33711,-15.7632 30.93854,-24.84108 l 14.73282,14.50382 a 4.737477,4.7075912 0 0 0 6.66881,0 c 11.67188,-11.4897 22.23051,-24.07732 31.50479,-37.59079 9.27422,-13.51344 17.26207,-27.95274 23.79234,-43.15105 6.53022,-15.1983 11.60171,-31.15257 15.03998,-47.69268 3.43829,-16.54016 5.244,-33.66505 5.244,-51.1973 0,-17.53227 -1.80571,-34.65713 -5.244,-51.1973 a 4.737477,4.7075912 0 0 0 -4.79621,-3.75467 z m -49.56831,9.98426 a 4.737477,4.7075912 0 0 0 -4.53346,5.72209 c 2.63438,12.67292 4.01535,25.79756 4.01535,39.24562 0,13.44804 -1.38097,26.56898 -4.01535,39.24194 -1.71139,8.23285 -3.95984,16.27243 -6.69102,24.09089 -0.5216,-0.0594 -1.0475,-0.0992 -1.58394,-0.0992 -7.69898,0 -14.04076,6.3018 -14.04076,13.95221 0,7.65041 6.34178,13.95588 14.04076,13.95588 7.69899,0 14.04447,-6.30547 14.04447,-13.95588 0,-3.71475 -1.50214,-7.10473 -3.92282,-9.61649 3.05053,-8.56335 5.5516,-17.38048 7.43118,-26.4224 2.76353,-13.29426 4.21148,-27.05685 4.21148,-41.14686 0,-14.09003 -1.44795,-27.8563 -4.21148,-41.15053 a 4.737477,4.7075912 0 0 0 -4.74441,-3.81719 z m -12.80842,117.61549 c 2.57886,0 4.57047,1.97538 4.57047,4.53797 0,2.56256 -1.99161,4.54162 -4.57047,4.54162 -2.57884,0 -4.56676,-1.97906 -4.56676,-4.54162 0,-2.56259 1.98792,-4.53797 4.56676,-4.53797 z m 5.07748,42.02945 c 2.57884,0 4.56677,1.97535 4.56677,4.53796 0,2.56257 -1.98793,4.53794 -4.56677,4.53794 -2.57884,0 -4.56681,-1.97537 -4.56676,-4.53794 0,-2.56261 1.98792,-4.53796 4.56676,-4.53796 z m -379.80034,6.06777 a 4.737477,4.7075912 0 0 0 -2.49803,0.79064 l -21.00194,13.94115 a 4.737477,4.7075912 0 0 0 -1.28418,6.56423 c 9.27425,13.51347 19.83296,26.1011 31.50478,37.5908 11.67187,11.48966 24.45965,21.8841 38.18468,31.01182 13.72507,9.12773 28.38737,16.98823 43.82098,23.41425 15.43357,6.42599 31.63789,11.41503 48.43216,14.798 16.79431,3.38297 34.18008,5.15945 51.9812,5.15945 17.80119,0 35.18696,-1.77648 51.98122,-5.15945 16.79433,-3.383 32.99859,-8.37203 48.43215,-14.798 15.43363,-6.42602 30.09966,-14.28652 43.82469,-23.41425 a 4.7379307,4.7080421 0 0 0 -5.26992,-7.82559 c -13.2223,8.79342 -27.35223,16.36759 -42.21854,22.55741 -14.86633,6.18977 -30.46903,10.99465 -46.64838,14.25375 -16.17929,3.25908 -32.93405,4.9719 -50.10122,4.9719 -17.16711,0 -33.92187,-1.71282 -50.1012,-4.9719 -16.17929,-3.2591 -31.78214,-8.06398 -46.64837,-14.25375 -14.86635,-6.18982 -28.99621,-13.76399 -42.21855,-22.55741 -13.2223,-8.7934 -25.53813,-18.80705 -36.78209,-29.8755 -10.10907,-9.95131 -19.20669,-20.86498 -27.45982,-32.4019 l 13.11928,-8.70817 c 7.69737,10.7391 16.17014,20.90322 25.58352,30.1697 10.52607,10.36172 22.05444,19.73525 34.4321,27.9669 12.37766,8.2317 25.60574,15.32055 39.52436,21.11586 13.91864,5.7952 28.52731,10.29824 43.67295,13.3491 15.14562,3.05091 30.82509,4.65195 46.87782,4.65195 a 4.737477,4.7075912 0 0 0 4.73701,-4.70713 v -20.46126 c 12.63811,-0.28186 25.0491,-1.49421 37.03745,-3.90911 13.49693,-2.71876 26.51748,-6.72842 38.92115,-11.89283 12.40362,-5.16444 24.19006,-11.4855 35.22036,-18.82113 6.28017,-4.17659 12.30571,-8.69268 18.07093,-13.50355 2.01214,1.11382 4.31903,1.75414 6.76503,1.75414 7.69897,0 14.04076,-6.30547 14.04076,-13.95587 0,-7.65042 -6.34179,-13.95222 -14.04076,-13.95222 -7.699,0 -14.04078,6.3018 -14.04078,13.95222 0,1.81221 0.36486,3.54568 1.0103,5.14105 -5.44882,4.53715 -11.14078,8.79799 -17.0717,12.74233 -10.52757,7.00127 -21.77788,13.03236 -33.61423,17.9606 -11.83631,4.92821 -24.2591,8.75368 -37.14106,11.34857 -12.88192,2.59488 -26.22413,3.95691 -39.89446,3.95691 a 4.737477,4.7075912 0 0 0 -4.737,4.70712 v 19.99056 c -13.74855,-0.28453 -27.23398,-1.60569 -40.25712,-4.22904 -14.53062,-2.92696 -28.54526,-7.24584 -41.89658,-12.80484 -13.35132,-5.55904 -26.03959,-12.35798 -37.91452,-20.25534 -11.87494,-7.89732 -22.93503,-16.89006 -33.0332,-26.83059 C 88.06156,401.37788 78.92421,390.4895 70.90345,378.8025 a 4.737477,4.7075912 0 0 0 -4.04496,-2.05566 z m 329.89158,18.30627 c 2.57884,0 4.56675,1.97539 4.56675,4.53797 0,2.56257 -1.98791,4.54163 -4.56675,4.54163 -2.57885,0 -4.56678,-1.97906 -4.56678,-4.54163 0,-2.56258 1.98793,-4.53797 4.56678,-4.53797 z m -185.25014,50.43606 c 2.57884,0 4.56677,1.97539 4.56677,4.53796 0,2.56258 -1.98793,4.53795 -4.56677,4.53795 -2.57885,0 -4.56678,-1.97537 -4.56678,-4.53795 0,-2.56257 1.98793,-4.53796 4.56678,-4.53796 z m 93.89258,24.37405 c 2.57886,0 4.57046,1.9754 4.57046,4.53797 0,2.56258 -1.9916,4.54163 -4.57046,4.54163 -2.57885,0 -4.56676,-1.97905 -4.56676,-4.54163 0,-2.56257 1.98791,-4.53797 4.56676,-4.53797 z" />
</svg>
