<svg xmlns="http://www.w3.org/2000/svg" width="512" height="512" viewBox="0 0 512 512">
  <defs>
    <style>
      .b9fe1b0d-d05b-480f-865a-779cdac84e92 {
        fill: #fff;
      }

      .a8261d53-9a3a-4822-987e-4d778147761a {
        fill: none;
      }

      .ea787dcb-fb30-4378-9692-eb6eb40b0446 {
        fill: #242424;
      }

      .b4c243dc-c0e4-4314-8133-0ce440d50004 {
        fill: #ea272e;
      }

      .f11faeb7-29a3-4768-b3d4-63e9e34f1325 {
        fill: #ef6846;
      }

      .aebccdf1-5419-45dd-95ff-20255c988c03 {
        fill: #fdcf18;
      }

      .b584a442-2979-4bc4-bb56-9aa07941157f {
        fill: #50ba49;
      }

      .a1610a70-4bcc-461a-9905-603f5cb09ed8 {
        fill: #00a7ee;
      }
    </style>
  </defs>
  <g id="b1b3556c-2a5c-4caf-b3de-185a8d590d4d" data-name="Ebene 1">
    <g id="bba9c2b1-9920-45f7-a0e9-271c88931078" data-name=" 512x512 2x">
      <g id="b2465824-482a-4e5e-bf8d-7767a1a6ee90" data-name="Artwork">
        <path id="a6ebfeb6-2815-4052-bc77-8242741f3875" data-name="Mask-8" class="b9fe1b0d-d05b-480f-865a-779cdac84e92" d="M462,178.31c0-4.89,0-9.78,0-14.67,0-4.12-.07-8.24-.18-12.36a178.66,178.66,0,0,0-2.37-26.91A90.44,90.44,0,0,0,451,98.81a86,86,0,0,0-37.62-37.6,90.63,90.63,0,0,0-25.59-8.43,181.3,181.3,0,0,0-26.91-2.37c-4.12-.11-8.24-.15-12.37-.18-4.89,0-9.78,0-14.68,0L277,50H234.5l-55.82.2c-4.9,0-9.81,0-14.71,0-4.13,0-8.26.07-12.39.19a180.75,180.75,0,0,0-27,2.36A90.88,90.88,0,0,0,99,61.21a86,86,0,0,0-37.69,37.6,90.29,90.29,0,0,0-8.45,25.58,178.39,178.39,0,0,0-2.37,26.89c-.12,4.12-.16,8.24-.19,12.36,0,4.89-.28,11-.28,15.86v98l.25,56.21c0,4.9,0,9.8,0,14.7,0,4.12.07,8.25.19,12.37a179.18,179.18,0,0,0,2.37,27,90.82,90.82,0,0,0,8.44,25.6A86.3,86.3,0,0,0,99,451a91.46,91.46,0,0,0,25.65,8.44,180.62,180.62,0,0,0,27,2.36c4.13.12,8.26.16,12.39.19,4.9,0,9.81,0,14.71,0H333.82c4.9,0,9.79,0,14.68,0,4.13,0,8.25-.07,12.37-.18a180.11,180.11,0,0,0,26.92-2.38A90.57,90.57,0,0,0,413.37,451,86.09,86.09,0,0,0,451,413.33a90.82,90.82,0,0,0,8.43-25.62,178.92,178.92,0,0,0,2.37-26.93c.11-4.12.16-8.25.18-12.37,0-4.9,0-9.8,0-14.7V178.31" transform="translate(0 0)"/>
        <g id="aea4475b-650e-4830-a33d-3b0bbf9eeb6d" data-name="Artwork-2">
          <g id="a2d66662-8194-423b-8bef-f7521e3d4b40" data-name="Icon Center Image Artwork">
            <rect id="b0e396e1-59f5-427f-b660-034129d5bf9c" data-name="Icon Center Image Artwork background" class="a8261d53-9a3a-4822-987e-4d778147761a" x="50" y="50" width="412" height="412"/>
          </g>
        </g>
      </g>
    </g>
    <rect class="ea787dcb-fb30-4378-9692-eb6eb40b0446" width="512" height="512"/>
    <g>
      <g>
        <path class="b9fe1b0d-d05b-480f-865a-779cdac84e92" d="M252.83,164.56a93.89,93.89,0,0,1,18.58,1.84,92.23,92.23,0,0,1,17.3,5.29,90.79,90.79,0,0,1,9.26,4.48,5.56,5.56,0,0,0-.16,1.29,5.8,5.8,0,1,0,5.8-5.76,5.75,5.75,0,0,0-3.51,1.2,96,96,0,0,0-27.91-10.31,98.59,98.59,0,0,0-17.4-1.82v-6.41a104.88,104.88,0,0,1,18.73,2,102.63,102.63,0,0,1,64.41,42.48A100.24,100.24,0,0,1,347.38,216a2,2,0,0,0,3.63-1.47l0,0a103.52,103.52,0,0,0-9.82-17.82,105.54,105.54,0,0,0-13-15.52,106.78,106.78,0,0,0-33.86-22.47,105.8,105.8,0,0,0-20-6.11,108.32,108.32,0,0,0-21.46-2.13,1.94,1.94,0,0,0-2,1.94v10.3A1.94,1.94,0,0,0,252.83,164.56Zm50.78,11a1.87,1.87,0,1,1-1.88,1.87A1.85,1.85,0,0,1,303.61,175.59Z" transform="translate(0 0)"/>
        <path class="b9fe1b0d-d05b-480f-865a-779cdac84e92" d="M229,175.38a5.8,5.8,0,0,0,11.58.37,83.67,83.67,0,0,1,12.24-.9,82.05,82.05,0,0,1,57.78,23.56,81,81,0,0,1,10,11.9A79.92,79.92,0,0,1,328.12,224a2,2,0,0,0,2.55,1l9.63-4a1.93,1.93,0,0,0,1.05-2.54v0a93.88,93.88,0,0,0-8.86-16.06,97.22,97.22,0,0,0-7.37-9.41,5.83,5.83,0,1,0-2.55,3,87.51,87.51,0,0,1,14.32,22.23l-6,2.5a81.85,81.85,0,0,0-17.5-25,85.84,85.84,0,0,0-43.28-23A86.7,86.7,0,0,0,252.83,171a87.67,87.67,0,0,0-13.35,1A5.8,5.8,0,0,0,229,175.38Zm90.67,17.49a1.88,1.88,0,1,1,1.88-1.88A1.86,1.86,0,0,1,319.68,192.87Zm-83-17.49a1.89,1.89,0,1,1-1.88-1.88A1.85,1.85,0,0,1,236.69,175.38Z" transform="translate(0 0)"/>
        <path class="b9fe1b0d-d05b-480f-865a-779cdac84e92" d="M310.21,339a103.11,103.11,0,0,1-36.69,15.2,105.38,105.38,0,0,1-41.37,0,102.74,102.74,0,0,1-51.88-27.54,101.21,101.21,0,0,1-11.34-13.37l5.42-3.6a93.26,93.26,0,0,0,24.78,24,96.22,96.22,0,0,0,16.31,8.72,95.2,95.2,0,0,0,18,5.51,97.83,97.83,0,0,0,19.35,1.93,2,2,0,0,0,2-2v-8.45a84.09,84.09,0,0,0,31.36-6.52,85.47,85.47,0,0,0,14.54-7.77,86.68,86.68,0,0,0,7.46-5.58,5.75,5.75,0,1,0-3-5,5.6,5.6,0,0,0,.42,2.12,82.73,82.73,0,0,1-7.05,5.26A82.17,82.17,0,0,1,269.3,334a83.41,83.41,0,0,1-16.47,1.63,2,2,0,0,0-2,1.95v8.25a94.69,94.69,0,0,1-16.63-1.74,92.4,92.4,0,0,1-46.59-24.73A91.43,91.43,0,0,1,176.41,306a2,2,0,0,0-1.67-.85h0a2,2,0,0,0-1,.33L165,311.2a1.93,1.93,0,0,0-.54,2.69v0a105.37,105.37,0,0,0,13,15.52A106.83,106.83,0,0,0,231.37,358a108.18,108.18,0,0,0,62.92-6.11,106.77,106.77,0,0,0,18.1-9.67,1.95,1.95,0,1,0-2.18-3.23Zm.74-26.33a1.88,1.88,0,1,1-1.89,1.88A1.85,1.85,0,0,1,311,312.67Z" transform="translate(0 0)"/>
        <path class="b9fe1b0d-d05b-480f-865a-779cdac84e92" d="M181.85,302.4a85.38,85.38,0,0,0,10.45,12.47,85.87,85.87,0,0,0,27.21,18.06,88,88,0,0,0,9.21,3.23,5.78,5.78,0,1,0,.82-3.82,79.37,79.37,0,0,1-8.51-3,81.69,81.69,0,0,1-35.95-29.13,79.87,79.87,0,0,1-7.53-13.66,2,2,0,0,0-2.55-1l-17.39,7.23a98.53,98.53,0,0,1,9.12-92.31l7,4.64a2,2,0,0,0,2.7-.52,91.43,91.43,0,0,1,11.25-13.43,92.76,92.76,0,0,1,13.64-11.08,92.76,92.76,0,0,1,32.95-13.65,1.94,1.94,0,0,0,1.53-2.29h0L233.67,154a2,2,0,0,0-2-1.55h0a1.75,1.75,0,0,0-.32,0,107,107,0,0,0-53.86,28.58,1.93,1.93,0,0,0-.06,2.75,2,2,0,0,0,2.76.07l.06-.06a101.13,101.13,0,0,1,50-27l1.31,6.28a93.63,93.63,0,0,0-32.44,13.74,95.44,95.44,0,0,0-14.22,11.55,94.41,94.41,0,0,0-10.56,12.46l-7.14-4.74a2,2,0,0,0-2.7.52,103.52,103.52,0,0,0-9.83,99.48,2,2,0,0,0,2.56,1l17.56-7.31A83.33,83.33,0,0,0,181.85,302.4Zm52.61,31.1h0a1.87,1.87,0,1,1-1.89,1.87A1.84,1.84,0,0,1,234.46,333.5Z" transform="translate(0 0)"/>
        <path class="b9fe1b0d-d05b-480f-865a-779cdac84e92" d="M357.19,234.12a2,2,0,0,0-2-1.55h0a1.65,1.65,0,0,0-.32,0l-10.25,2.07a1.94,1.94,0,0,0-1.52,2.3h0a89.19,89.19,0,0,1-9.59,62.1,5.65,5.65,0,0,0-2-.36,5.76,5.76,0,1,0,5.8,5.76,5.66,5.66,0,0,0-.77-2.85,92.47,92.47,0,0,0,10.67-63.51l6.41-1.3a98.56,98.56,0,0,1-.3,38.79,99,99,0,0,1-6,18.95,100.71,100.71,0,0,1-9.45,17.16,103,103,0,0,1-11.22,13.53l-5.95-5.86a2,2,0,0,0-2.76,0,92.29,92.29,0,0,1-39.81,23.09,5.75,5.75,0,1,0,.76,3.82,96.18,96.18,0,0,0,27.59-12.61,94.92,94.92,0,0,0,12.77-10.25l6.09,6a2,2,0,0,0,2.75,0,106.06,106.06,0,0,0,13-15.52A103.89,103.89,0,0,0,351,296.09a103.79,103.79,0,0,0,6.21-62Zm-25.64,72.24a1.88,1.88,0,1,1,1.89-1.88A1.85,1.85,0,0,1,331.55,306.36Zm-58.32,40.95a1.88,1.88,0,1,1,1.88-1.88A1.86,1.86,0,0,1,273.23,347.31Z" transform="translate(0 0)"/>
        <path class="b9fe1b0d-d05b-480f-865a-779cdac84e92" d="M165.37,226.6a5.81,5.81,0,1,0-3.69-1.28A93.41,93.41,0,0,0,158.77,236a1.33,1.33,0,0,0-.05.19,2,2,0,0,0,0,.24,93.48,93.48,0,0,0,0,37.89,2,2,0,0,0,3.84-.73v0a90.28,90.28,0,0,1,0-36.56A88.21,88.21,0,0,1,165.37,226.6Zm-.06-7.63a1.87,1.87,0,1,1-1.89,1.87A1.84,1.84,0,0,1,165.31,219Z" transform="translate(0 0)"/>
        <path class="b9fe1b0d-d05b-480f-865a-779cdac84e92" d="M177.55,224a79.87,79.87,0,0,1,7.53-13.66,81.95,81.95,0,0,1,18.83-19.46,5.74,5.74,0,0,0,3.31,1.05,5.77,5.77,0,1,0-5.8-5.76,5.75,5.75,0,0,0,.22,1.55,85.3,85.3,0,0,0-19.79,20.43,84.11,84.11,0,0,0-7.9,14.32,83.53,83.53,0,0,0-5,49.81,2,2,0,0,0,2.29,1.54,1.93,1.93,0,0,0,1.55-2.27v-.06A79.28,79.28,0,0,1,177.55,224Zm29.67-39.71a1.88,1.88,0,1,1-1.89,1.88A1.85,1.85,0,0,1,207.22,184.26Z" transform="translate(0 0)"/>
        <path class="b9fe1b0d-d05b-480f-865a-779cdac84e92" d="M338.44,255.26a83.48,83.48,0,0,0-1.74-17,2,2,0,0,0-1.95-1.58h0a2,2,0,0,0-1.92,2,2.33,2.33,0,0,0,0,.38,79.93,79.93,0,0,1,0,32.41,77.38,77.38,0,0,1-2.76,10,4.63,4.63,0,0,0-.65,0,5.76,5.76,0,1,0,5.8,5.76,5.69,5.69,0,0,0-1.62-4,81.91,81.91,0,0,0,3.06-10.91A83.48,83.48,0,0,0,338.44,255.26Zm-9,33.74a1.88,1.88,0,1,1,1.88-1.87A1.85,1.85,0,0,1,329.46,289Z" transform="translate(0 0)"/>
      </g>
      <path class="b9fe1b0d-d05b-480f-865a-779cdac84e92" d="M340.22,129.62A82.28,82.28,0,0,0,175.92,123a18.39,18.39,0,1,0,13.11-.34,69.25,69.25,0,0,1,138.16,6.93l.93,29.67h13ZM193.05,140a10.14,10.14,0,1,1-10.14-10.14A10.14,10.14,0,0,1,193.05,140Z" transform="translate(0 0)"/>
    </g>
    <g id="a65a35b0-329b-4723-8a8e-c2b743d27140" data-name="Gruppe 22">
      <rect id="bf81e73e-14ba-463a-b786-31b7466e2b89" data-name="Rechteck 16" class="b4c243dc-c0e4-4314-8133-0ce440d50004" y="410.5" width="512" height="5.72"/>
      <rect id="adad2467-3b77-48ba-9ecb-13d66dc0ec77" data-name="Rechteck 17" class="f11faeb7-29a3-4768-b3d4-63e9e34f1325" y="421.94" width="512" height="5.72"/>
      <rect id="fb6f94a7-9b33-4740-8cc1-44c14bff70b3" data-name="Rechteck 18" class="aebccdf1-5419-45dd-95ff-20255c988c03" y="433.39" width="512" height="5.72"/>
      <rect id="af7cfb28-54db-43da-a0fe-b56b735a2c5e" data-name="Rechteck 19" class="b584a442-2979-4bc4-bb56-9aa07941157f" y="444.83" width="512" height="5.72"/>
      <rect id="b979afdd-5cd5-42e3-8b38-5fca11531d09" data-name="Rechteck 20" class="a1610a70-4bcc-461a-9905-603f5cb09ed8" y="456.27" width="512" height="5.72"/>
    </g>
  </g>
</svg>
