<svg xmlns="http://www.w3.org/2000/svg" width="412.7" height="412.7" viewBox="0 0 412.7 412.7">
  <defs>
    <style>
      .b6792538-8e9d-4e3c-b7b9-bdcd0c721b7a {
        fill: #fff;
      }

      .aee4ac16-af29-4209-8701-af18fc6aed0d {
        fill: none;
      }

      .a600c8b3-0a65-4788-8255-d5d275c45cf1 {
        fill: #242424;
      }

      .ffd2c703-a4ff-4f12-8f3c-622abb7d6190 {
        fill: #ea272e;
      }

      .fe8fe4e3-32a9-4331-b393-33eee86a9a9b {
        fill: #ef6846;
      }

      .fa2e74c8-7adc-4c3e-a344-0088fe47cc91 {
        fill: #fdcf18;
      }

      .aa81a7a3-9122-49de-80ef-6404aab3663c {
        fill: #50ba49;
      }

      .f36c82b2-5bdc-4cbd-abc0-3ed454caf51f {
        fill: #00a7ee;
      }
    </style>
  </defs>
  <g id="aeef55ae-f645-402a-b553-9f9d3e41ec96" data-name="Ebene 1">
    <g id="bb980fc8-0f30-493b-8e6f-f270f9251e55" data-name=" 512x512 2x">
      <g id="a4132c0b-bbb0-44ff-9fd1-b7b5e951697c" data-name="Artwork">
        <path id="b9c2efc8-64a8-4ead-9e2e-e48c9b7165d5" data-name="Mask-8" class="b6792538-8e9d-4e3c-b7b9-bdcd0c721b7a" d="M412.35,128.66c0-4.89,0-9.78,0-14.67,0-4.12-.07-8.24-.18-12.36a178.53,178.53,0,0,0-2.37-26.9,90.4,90.4,0,0,0-8.43-25.57,86,86,0,0,0-37.62-37.6,90.63,90.63,0,0,0-25.59-8.43A180,180,0,0,0,311.22.77C307.1.65,303,.61,298.85.58c-4.89,0-9.78,0-14.68,0L227.35.35h-42.5L129,.55c-4.9,0-9.81,0-14.71,0-4.13,0-8.26.07-12.39.19A180.75,180.75,0,0,0,75,3.13a91,91,0,0,0-25.63,8.43,86.09,86.09,0,0,0-37.69,37.6A90.29,90.29,0,0,0,3.19,74.74,178.39,178.39,0,0,0,.82,101.63C.71,105.75.66,109.87.63,114c0,4.89-.28,11-.28,15.86v98L.6,284.06c0,4.9,0,9.8,0,14.7,0,4.12.08,8.25.19,12.37a179.18,179.18,0,0,0,2.37,26.95,90.84,90.84,0,0,0,8.45,25.6,86.2,86.2,0,0,0,37.69,37.65A91.29,91.29,0,0,0,75,409.77a182,182,0,0,0,27,2.37c4.13.11,8.26.15,12.39.18,4.91,0,9.81,0,14.71,0H284.17c4.9,0,9.79,0,14.68,0,4.13,0,8.25-.07,12.37-.18a181.43,181.43,0,0,0,26.92-2.37,90.91,90.91,0,0,0,25.58-8.44,86.09,86.09,0,0,0,37.62-37.65,90.82,90.82,0,0,0,8.43-25.62,178.92,178.92,0,0,0,2.37-26.93c.11-4.12.16-8.25.18-12.37,0-4.9,0-9.8,0-14.7V128.67"/>
        <g id="bd537a78-c050-4fae-9a51-faa43803f891" data-name="Artwork-2">
          <g id="a87f6a41-58ac-4758-acd2-f219d542dd3b" data-name="Icon Center Image Artwork">
            <rect id="bf53fc7f-f932-454d-8b23-66f91a43031d" data-name="Icon Center Image Artwork background" class="aee4ac16-af29-4209-8701-af18fc6aed0d" x="0.35" y="0.35" width="412" height="412"/>
          </g>
        </g>
      </g>
    </g>
    <rect class="a600c8b3-0a65-4788-8255-d5d275c45cf1" x="-49.35" y="-49.35" width="512" height="512"/>
    <g>
      <path class="b6792538-8e9d-4e3c-b7b9-bdcd0c721b7a" d="M206.35,141.11a67.49,67.49,0,0,1,13.36,1.33,66.32,66.32,0,0,1,19.11,7,4.08,4.08,0,0,0-.11.93,4.17,4.17,0,1,0,4.17-4.14,4.13,4.13,0,0,0-2.53.86,68.79,68.79,0,0,0-20.08-7.41,70.55,70.55,0,0,0-12.51-1.32v-4.61a75.57,75.57,0,0,1,13.47,1.41,74.59,74.59,0,0,1,13.85,4.23A74,74,0,0,1,258.55,155a72.41,72.41,0,0,1,9,10.75,71.45,71.45,0,0,1,6.8,12.34,1.41,1.41,0,0,0,1.84.76A1.4,1.4,0,0,0,277,177l0,0a75.18,75.18,0,0,0-16.42-24,77,77,0,0,0-38.74-20.56,78.49,78.49,0,0,0-15.44-1.53,1.4,1.4,0,0,0-1.41,1.4v7.4A1.41,1.41,0,0,0,206.35,141.11ZM242.88,149a1.35,1.35,0,1,1-1.36,1.35A1.33,1.33,0,0,1,242.88,149Z"/>
      <path class="b6792538-8e9d-4e3c-b7b9-bdcd0c721b7a" d="M189.22,148.89a4.16,4.16,0,0,0,8.32.27,60.9,60.9,0,0,1,8.81-.65,60.06,60.06,0,0,1,11.85,1.18,59.22,59.22,0,0,1,11,3.37,58.83,58.83,0,0,1,25.86,21,57.13,57.13,0,0,1,5.41,9.82,1.41,1.41,0,0,0,1.84.74l6.93-2.88a1.4,1.4,0,0,0,.76-1.83h0a68,68,0,0,0-6.37-11.56,69.14,69.14,0,0,0-5.3-6.76,4.22,4.22,0,1,0-1.83,2.16,63.55,63.55,0,0,1,10.29,16l-4.33,1.81a59,59,0,0,0-12.59-18A61.7,61.7,0,0,0,218.76,147a62.63,62.63,0,0,0-12.41-1.23,63.47,63.47,0,0,0-9.61.73,4.16,4.16,0,0,0-7.52,2.44Zm65.21,12.58a1.35,1.35,0,1,1,1.36-1.35A1.33,1.33,0,0,1,254.43,161.47Zm-59.69-12.58a1.36,1.36,0,1,1-1.35-1.35A1.33,1.33,0,0,1,194.74,148.89Z"/>
      <path class="b6792538-8e9d-4e3c-b7b9-bdcd0c721b7a" d="M247.62,266.59a74,74,0,0,1-26.39,10.93,75.54,75.54,0,0,1-29.76,0A72.89,72.89,0,0,1,146,248.09l3.89-2.58a67.19,67.19,0,0,0,17.83,17.26A68.4,68.4,0,0,0,179.46,269a69.63,69.63,0,0,0,13,4,70.89,70.89,0,0,0,13.92,1.38,1.41,1.41,0,0,0,1.41-1.4v-6.08a62.25,62.25,0,0,0,11-1.16,60.93,60.93,0,0,0,11.56-3.53,61.3,61.3,0,0,0,15.82-9.6A4.14,4.14,0,1,0,244,249a4,4,0,0,0,.3,1.52,57.13,57.13,0,0,1-5.07,3.79,59,59,0,0,1-21,8.7,60.06,60.06,0,0,1-11.85,1.18,1.4,1.4,0,0,0-1.41,1.4v5.93A67.15,67.15,0,0,1,193,270.27a66,66,0,0,1-12.45-3.81,66.26,66.26,0,0,1-21.07-14,65.55,65.55,0,0,1-8.09-9.66,1.42,1.42,0,0,0-1.2-.61h0a1.42,1.42,0,0,0-.75.24l-6.23,4.14a1.39,1.39,0,0,0-.39,1.94h0a76.18,76.18,0,0,0,9.35,11.16,77.39,77.39,0,0,0,97,9.21,1.4,1.4,0,0,0,.39-1.94A1.42,1.42,0,0,0,247.62,266.59Zm.53-18.94A1.35,1.35,0,1,1,246.8,249,1.33,1.33,0,0,1,248.15,247.65Z"/>
      <path class="b6792538-8e9d-4e3c-b7b9-bdcd0c721b7a" d="M155.29,240.26a60.8,60.8,0,0,0,7.52,9,62.42,62.42,0,0,0,9.11,7.4,61.69,61.69,0,0,0,10.46,5.59,59.73,59.73,0,0,0,6.63,2.32,4.17,4.17,0,1,0,.59-2.74,58.78,58.78,0,0,1-24.81-14.56,57.59,57.59,0,0,1-7.17-8.56,56.81,56.81,0,0,1-5.42-9.82,1.4,1.4,0,0,0-1.84-.74l-12.51,5.2A70.51,70.51,0,0,1,134,221a72.19,72.19,0,0,1,0-29.28,70.66,70.66,0,0,1,4.3-13.63,72,72,0,0,1,6.07-11.16l5,3.33a1.42,1.42,0,0,0,1.95-.37,66.07,66.07,0,0,1,8.09-9.66,66.26,66.26,0,0,1,21.07-14,66,66,0,0,1,12.45-3.8,1.41,1.41,0,0,0,1.1-1.65h0l-1.52-7.25a1.41,1.41,0,0,0-1.43-1.12h0l-.23,0A76.84,76.84,0,0,0,152.17,153a1.4,1.4,0,1,0,1.94,2l0,0a72.75,72.75,0,0,1,36-19.46l.95,4.51a68.1,68.1,0,0,0-41.17,27.16l-5.13-3.41a1.41,1.41,0,0,0-1.94.37A75,75,0,0,0,135.75,177a73.72,73.72,0,0,0-4.47,14.17,75.35,75.35,0,0,0,0,30.41,73.85,73.85,0,0,0,4.47,14.16,1.4,1.4,0,0,0,1.84.74l12.63-5.25A61.14,61.14,0,0,0,155.29,240.26Zm37.84,22.37h0a1.35,1.35,0,1,1-1.35,1.35A1.33,1.33,0,0,1,193.13,262.63Z"/>
      <path class="b6792538-8e9d-4e3c-b7b9-bdcd0c721b7a" d="M281.42,191.15A1.41,1.41,0,0,0,280,190h0l-.23,0-7.37,1.49a1.41,1.41,0,0,0-1.1,1.65h0a64.39,64.39,0,0,1-3.86,38.54,62.29,62.29,0,0,1-3,6.13,4.13,4.13,0,1,0,2.75,3.89,4.06,4.06,0,0,0-.56-2,67,67,0,0,0,7.46-19.65,66.41,66.41,0,0,0,.22-26l4.61-.94a70.8,70.8,0,0,1-.22,27.9,70.66,70.66,0,0,1-4.3,13.63,71.45,71.45,0,0,1-6.8,12.34,73,73,0,0,1-8.07,9.73l-4.28-4.21a1.41,1.41,0,0,0-2,0,66.26,66.26,0,0,1-21.07,14,65.06,65.06,0,0,1-7.57,2.63,4.13,4.13,0,1,0,.55,2.75,68,68,0,0,0,29-16.45l4.38,4.31a1.41,1.41,0,0,0,2,0,76.25,76.25,0,0,0,9.36-11.16A75.28,75.28,0,0,0,277,235.72a73.85,73.85,0,0,0,4.47-14.16,74.88,74.88,0,0,0,0-30.41Zm-18.44,52a1.35,1.35,0,1,1,1.35-1.35A1.33,1.33,0,0,1,263,243.11Zm-42,29.45a1.35,1.35,0,1,1,1.36-1.34A1.33,1.33,0,0,1,221,272.56Z"/>
      <path class="b6792538-8e9d-4e3c-b7b9-bdcd0c721b7a" d="M143.44,185.74a4.19,4.19,0,1,0-2.65-.92,65.88,65.88,0,0,0-2.1,7.68.57.57,0,0,0,0,.14.88.88,0,0,0,0,.17,67.47,67.47,0,0,0,0,27.25,1.41,1.41,0,0,0,2.77-.52v0a64.4,64.4,0,0,1,2-33.76Zm-.05-5.49a1.35,1.35,0,1,1-1.35,1.34A1.33,1.33,0,0,1,143.39,180.25Z"/>
      <path class="b6792538-8e9d-4e3c-b7b9-bdcd0c721b7a" d="M152.2,183.84a56.51,56.51,0,0,1,5.42-9.82,58.1,58.1,0,0,1,7.17-8.56,59,59,0,0,1,6.37-5.44,4.14,4.14,0,1,0-1.63-2.27,62.25,62.25,0,0,0-6.72,5.72,60.66,60.66,0,0,0-13.2,19.27A59.43,59.43,0,0,0,146,194.13a60.36,60.36,0,0,0,0,24.44,1.4,1.4,0,0,0,1.65,1.11,1.38,1.38,0,0,0,1.11-1.63v0a57.16,57.16,0,0,1,3.42-34.17Zm21.34-28.56a1.35,1.35,0,1,1-1.36,1.35A1.34,1.34,0,0,1,173.54,155.28Z"/>
      <path class="b6792538-8e9d-4e3c-b7b9-bdcd0c721b7a" d="M267.93,206.35a60.09,60.09,0,0,0-1.25-12.22,1.39,1.39,0,0,0-1.41-1.13h0a1.4,1.4,0,0,0-1.38,1.42,1.35,1.35,0,0,0,0,.28,56.92,56.92,0,0,1-2,30.46,3.71,3.71,0,0,0-.47,0,4.15,4.15,0,1,0,4.17,4.15,4.11,4.11,0,0,0-1.17-2.86,58.79,58.79,0,0,0,2.21-7.85A60,60,0,0,0,267.93,206.35Zm-6.46,24.27a1.35,1.35,0,1,1,1.36-1.34A1.33,1.33,0,0,1,261.47,230.62Z"/>
    </g>
    <path class="b6792538-8e9d-4e3c-b7b9-bdcd0c721b7a" d="M259.73,113.23a50.26,50.26,0,0,0-100.36-4,11.23,11.23,0,1,0,8-.21,42.31,42.31,0,0,1,84.4,4.23l.57,18.13h8Zm-89.9,6.37a6.19,6.19,0,1,1-6.19-6.2A6.19,6.19,0,0,1,169.83,119.6Z"/>
    <g id="ad3e446c-b405-4aa8-8453-665b1b9bc28c" data-name="Gruppe 22">
      <rect id="e5df40a7-3117-4610-bfea-828dd7bd0c87" data-name="Rechteck 16" class="ffd2c703-a4ff-4f12-8f3c-622abb7d6190" x="-49.65" y="323.94" width="512" height="5.72"/>
      <rect id="a3f59235-0f57-43c3-98c1-1d800618d844" data-name="Rechteck 17" class="fe8fe4e3-32a9-4331-b393-33eee86a9a9b" x="-49.65" y="335.38" width="512" height="5.72"/>
      <rect id="e5d0bac4-41f4-48d1-a18e-e19174cbad6e" data-name="Rechteck 18" class="fa2e74c8-7adc-4c3e-a344-0088fe47cc91" x="-49.65" y="346.83" width="512" height="5.72"/>
      <rect id="a70ea461-8d75-4b18-8053-88bf201edc59" data-name="Rechteck 19" class="aa81a7a3-9122-49de-80ef-6404aab3663c" x="-49.65" y="358.27" width="512" height="5.72"/>
      <rect id="ed187dc7-735a-4b2c-b535-bcc39f82bf87" data-name="Rechteck 20" class="f36c82b2-5bdc-4cbd-abc0-3ed454caf51f" x="-49.65" y="369.71" width="512" height="5.72"/>
    </g>
  </g>
</svg>
